<svg width="211" height="40" viewBox="0 0 211 40" fill="none" xmlns="http://www.w3.org/2000/svg">
<g clip-path="url(#clip0_1989_8115)">
<path d="M97.8661 29.1444C98.8144 29.1504 99.5909 28.3399 99.5909 27.3371V26.7607C99.5909 25.8421 98.933 25.0976 98.0676 24.9655C97.7239 24.9115 97.392 24.8094 97.1371 24.6232C95.8687 23.6806 96.0288 21.339 96.0347 21.2849L96.011 9.14442C96.011 7.98561 95.116 7.04895 94.0136 7.04895H93.8773C92.7749 7.04895 91.8799 7.99161 91.8799 9.15042V22.9661C91.8799 28.484 96.0584 29.1264 97.8543 29.1444H97.8661Z" fill="#00AFAA"/>
<path d="M36.1722 14.4461C36.1722 13.2873 35.2831 12.3446 34.1748 12.3446C33.428 12.3446 32.6338 12.3446 32.1004 12.3446C30.3045 12.3686 26.126 13.0111 26.126 18.5229L26.1793 26.9768C26.1852 28.1717 27.1158 29.1264 28.2538 29.1083C29.368 29.0903 30.263 28.1357 30.263 26.9708L30.2808 20.1681C30.2808 20.1681 30.0378 17.6643 31.3891 16.8598C31.7684 16.6316 32.1656 16.5355 32.5982 16.5415C32.7938 16.5415 33.4636 16.5415 34.1748 16.5415C35.2772 16.5415 36.1722 15.5989 36.1722 14.4401V14.4461Z" fill="#00AFAA"/>
<path d="M51.1974 17.22C51.1974 16.2533 51.0196 15.4428 50.6758 14.8183C50.332 14.1939 49.8934 13.6895 49.3659 13.3293C48.8444 12.969 48.2754 12.7108 47.6827 12.5667C47.084 12.4226 46.521 12.3506 45.9935 12.3506H43.0893C41.9869 12.3506 41.086 13.2872 41.086 14.4461C41.086 15.6049 41.9809 16.5475 43.0833 16.5475H46.0942C46.6929 16.5475 47.0959 16.8898 47.0959 17.208V18.1146C46.2009 18.1146 45.2585 18.1807 44.3102 18.3128C43.3619 18.4449 42.4847 18.727 41.7083 19.1594C40.9378 19.5857 40.2917 20.1921 39.7879 20.9666C39.2842 21.7352 39.0293 22.7619 39.0293 24.0168C39.0293 24.6532 39.1597 25.2896 39.4205 25.9081C39.6813 26.5205 40.0428 27.0909 40.4933 27.5953C41.0267 28.1957 42.704 29.1503 44.9385 29.1503H45.8038C48.7851 29.1503 51.1974 26.6106 51.1974 23.4824V17.226V17.22ZM47.1018 23.7886C47.1018 25.2116 45.7683 26.2743 44.4999 25.794C44.1206 25.6499 43.7946 25.4458 43.5931 25.1636C43.3441 24.8093 43.2256 24.437 43.2256 24.0107C43.2256 23.5304 43.3382 23.1281 43.5575 22.8159C43.7768 22.5097 44.0731 22.2695 44.4406 22.1014C44.8081 21.9393 45.223 21.8252 45.6853 21.7712C46.1476 21.7171 46.6277 21.6871 47.1018 21.6871V23.7826V23.7886Z" fill="#00AFAA"/>
<path d="M84.5244 13.8997C83.991 13.2993 82.3077 12.3446 80.0792 12.3446H79.854C76.523 12.3446 73.8203 15.1846 73.8203 18.685V24.275C73.8203 25.2416 73.9981 26.0522 74.3419 26.6766C74.6856 27.3011 75.1242 27.8054 75.6517 28.1657C76.1733 28.5319 76.7423 28.7841 77.3409 28.9282C77.9336 29.0723 78.5026 29.1444 79.0301 29.1444H81.9343C83.0367 29.1444 83.9317 28.2077 83.9317 27.0489C83.9317 25.8901 83.0367 24.9474 81.9343 24.9474H78.9234C78.3248 24.9474 77.9218 24.6052 77.9218 24.287V23.3803C78.8167 23.3803 79.7591 23.3143 80.7074 23.1822C81.6558 23.0501 82.533 22.7679 83.3094 22.3356C84.0799 21.9093 84.7259 21.3029 85.2297 20.5283C85.7335 19.7598 85.9884 18.7331 85.9884 17.4782C85.9884 16.8418 85.858 16.2053 85.5972 15.5869C85.3364 14.9744 84.9749 14.404 84.5244 13.8997ZM81.4661 18.673C81.2468 18.9792 80.9505 19.2194 80.583 19.3875C80.2155 19.5496 79.8006 19.6637 79.3383 19.7178C78.876 19.7718 78.3959 19.8018 77.9218 19.8018V17.7064C77.9218 16.2834 79.2553 15.2206 80.5296 15.701C80.909 15.8451 81.2349 16.0492 81.4305 16.3314C81.6795 16.6856 81.798 17.0579 81.798 17.4842C81.798 17.9645 81.6854 18.3668 81.4661 18.679V18.673Z" fill="#00AFAA"/>
<path d="M68.6228 12.5187H68.6051C67.5975 12.1044 66.4654 12.6148 66.0446 13.6595L63.3064 20.5163C63.0633 21.1227 62.2514 21.1287 61.9965 20.5283L59.116 13.6415C58.6833 12.6088 57.5513 12.1164 56.5496 12.5307L56.52 12.5427C55.465 12.981 54.9671 14.2479 55.4235 15.3407L60.6451 27.8414C60.9771 28.634 61.7239 29.1503 62.5477 29.1503C63.3715 29.1503 64.1183 28.64 64.4503 27.8474L69.7134 15.3347C70.1757 14.2359 69.666 12.951 68.5991 12.5247L68.6228 12.5187Z" fill="#00AFAA"/>
<path d="M10.7632 12.6568C10.7632 12.7529 10.7454 12.8489 10.7217 12.933V23.2542C10.7217 23.4223 10.7335 23.5845 10.7454 23.7466C10.7513 23.8246 10.7572 23.9027 10.7691 23.9807C11.1188 26.7186 13.4066 28.8441 16.1745 28.8441H16.2871C17.5081 28.8441 18.4919 27.8354 18.4919 26.5866C18.4919 25.5298 17.7866 24.6472 16.8265 24.401C16.6546 24.353 16.4708 24.329 16.2812 24.329H16.1686C15.5936 24.329 15.1254 23.8486 15.1254 23.2602V13.3293C15.1491 13.1071 15.1669 12.885 15.1669 12.6568V10.2972C15.1669 9.58265 14.592 9.00024 13.8867 9.00024H12.0375C11.3322 9.00024 10.7572 9.58265 10.7572 10.2972V12.6568H10.7632Z" fill="#FFCD00"/>
<path d="M130.067 23.6625H130.085C130.085 23.6625 130.073 23.6625 130.067 23.6625H167.958C167.958 23.6625 168.96 23.5965 169.505 23.4644C170.05 23.3323 170.572 23.0981 171.052 22.7679C171.532 22.4316 171.935 21.9753 172.249 21.3989C172.563 20.8225 172.729 20.084 172.729 19.1954V14.7943C172.729 14.0558 172.599 13.3473 172.356 12.6928C172.196 12.2605 171.739 11.474 171.739 11.474C171.739 11.474 170.507 11.8462 170.347 11.8462H169.784C168.669 11.8462 167.703 11.2098 167.187 10.2731C166.974 9.88887 166.802 8.98224 166.802 8.98224C166.802 8.98224 165.101 9.22841 164.799 9.32448C163.874 9.62469 163.205 10.069 162.914 10.3992C162.499 10.8676 162.167 11.3839 161.93 11.9483C161.693 12.5127 161.569 13.0951 161.569 13.6835C161.569 14.8303 161.8 15.773 162.262 16.4815C162.724 17.19 163.317 17.7484 164.028 18.1386C164.74 18.5349 165.546 18.7931 166.417 18.9132C167.294 19.0333 168.154 19.0933 168.977 19.0933V19.1954C168.977 19.4896 168.61 19.8018 168.059 19.8018H130.091V8.47789C130.091 7.41514 129.267 6.55054 128.259 6.55054H128.135C127.121 6.55054 126.303 7.40914 126.303 8.47188L126.286 21.6811C126.286 21.7352 126.434 23.8787 125.272 24.7433C125.053 24.9054 124.768 24.9954 124.472 25.0435L121.526 25.0255C121.526 25.0255 119.256 25.2536 118.533 23.9987C118.326 23.6445 118.237 23.2782 118.243 22.876C118.243 22.6958 118.243 22.0714 118.243 21.4109C118.243 20.3842 117.389 19.5556 116.34 19.5556C115.291 19.5556 114.438 20.3842 114.438 21.4109C114.438 22.1074 114.438 22.8459 114.438 23.3383C114.455 25.0075 115.042 28.8922 120.033 28.8922H124.946C125.076 28.8922 125.201 28.8742 125.319 28.8501C125.319 28.8501 125.331 28.8501 125.337 28.8501C127.109 28.658 129.877 27.6973 130.073 23.6685L130.067 23.6625ZM167.668 15.737C167.247 15.6889 166.862 15.5869 166.524 15.4308C166.186 15.2806 165.913 15.0585 165.712 14.7763C165.51 14.4941 165.409 14.1278 165.409 13.6835C165.409 13.2933 165.522 12.951 165.747 12.6268C165.931 12.3686 166.227 12.1825 166.577 12.0504C167.745 11.6061 168.966 12.5848 168.966 13.8877V15.815C168.527 15.815 168.088 15.791 167.662 15.737H167.668Z" fill="#00AFAA"/>
<path d="M210.999 13.9898C210.999 12.9631 210.146 12.1345 209.097 12.1345C208.048 12.1345 207.194 12.9691 207.194 13.9898C207.194 14.6503 207.194 17.4663 207.194 17.6464C207.194 18.0487 207.111 18.4149 206.904 18.7692C206.181 20.024 203.934 19.8019 203.911 19.7959H185.525C184.464 19.7959 183.605 20.6485 183.587 21.6812C183.569 22.7379 184.435 23.6506 185.519 23.6566H205.398C210.395 23.6566 210.976 19.7719 210.993 18.1027C210.993 17.6104 210.993 14.6743 210.993 13.9838L210.999 13.9898Z" fill="#FFCD00"/>
<path d="M179.148 11.8043C178.129 11.8223 177.305 12.6929 177.305 13.7677L177.287 21.7173C177.287 21.7173 177.513 24.0169 176.274 24.7494C175.924 24.9535 175.563 25.0496 175.166 25.0436C174.988 25.0436 172.214 25.0436 171.562 25.0436C170.548 25.0436 169.73 25.9082 169.73 26.9709C169.73 28.0337 170.548 28.8983 171.562 28.8983C172.249 28.8983 175.13 28.8983 175.622 28.8983C177.27 28.8803 181.104 28.2859 181.104 23.2303L181.057 13.7677C181.051 12.6749 180.197 11.7923 179.154 11.8103L179.148 11.8043Z" fill="#00AFAA"/>
<path d="M201.487 10.3873H202.05C202.915 10.3873 203.62 9.63676 203.62 8.71212V8.1117C203.62 7.18705 202.921 6.43652 202.05 6.43652H201.487C200.621 6.43652 199.916 7.18705 199.916 8.1117V8.71212C199.916 9.63676 200.615 10.3873 201.487 10.3873Z" fill="#00AFAA"/>
<path d="M196.703 10.3873H197.267C198.132 10.3873 198.837 9.63676 198.837 8.71212V8.1117C198.837 7.18705 198.138 6.43652 197.267 6.43652H196.703C195.838 6.43652 195.133 7.18705 195.133 8.1117V8.71212C195.133 9.63676 195.832 10.3873 196.703 10.3873Z" fill="#00AFAA"/>
<path d="M169.784 10.3873H170.347C171.212 10.3873 171.917 9.63676 171.917 8.71212V8.1117C171.917 7.18705 171.218 6.43652 170.347 6.43652H169.784C168.918 6.43652 168.213 7.18705 168.213 8.1117V8.71212C168.213 9.63676 168.912 10.3873 169.784 10.3873Z" fill="#00AFAA"/>
<path d="M15.1553 6.8688C14.3077 6.13629 13.4364 5.25968 12.5474 4.22095C10.9056 2.30561 9.72615 0.486334 9.45944 0.06604C5.00829 0.06604 0 0.06604 0 0.06604C0 0.0720442 0.0177809 0.468322 0.0177809 2.70188C0.0177809 4.53917 1.11427 6.07625 2.86272 6.61062C3.39022 6.77273 3.95921 6.8628 4.51042 6.87481H15.1553V6.8688Z" fill="#FFCD00"/>
<path d="M22.7123 0.30021C22.167 0.132092 21.5862 0.0540378 21.0172 0.0240168C20.6794 0.0060042 20.549 0 20.4601 0C20.3237 0 20.2763 0.0120084 19.7785 0.0120084C18.8064 0.0120084 13.2588 0.0120084 13.2588 0.0120084C13.2588 0.0120084 17.6803 5.18163 21.6217 6.44851C22.9435 6.87481 23.9629 6.97688 24.6267 6.97688C25.2313 6.97688 25.5454 6.89282 25.5454 6.89282C25.5454 6.89282 25.5454 4.93545 25.5454 4.18493C25.5335 2.35965 24.4548 0.846593 22.7182 0.306214L22.7123 0.30021Z" fill="#00AFAA"/>
<path d="M28.7106 38.1927C29.0129 38.1927 29.2678 38.1266 29.4871 37.9885V38.613C29.2322 38.709 28.9418 38.7571 28.6277 38.7571C28.3372 38.7571 28.0646 38.709 27.8097 38.619C27.5608 38.5289 27.3415 38.3908 27.1341 38.2107C26.8733 37.9645 26.6718 37.6523 26.5414 37.286C26.405 36.9138 26.3398 36.4695 26.3398 35.9531C26.3398 35.5688 26.3873 35.2146 26.488 34.8964C26.5888 34.5781 26.737 34.302 26.9385 34.0558C27.1578 33.7856 27.4126 33.5875 27.703 33.4554C27.9935 33.3173 28.3313 33.2512 28.7166 33.2512C28.9951 33.2512 29.2559 33.2872 29.4871 33.3533V33.9597C29.2855 33.8576 29.0307 33.8036 28.7284 33.8036C28.2128 33.8036 27.792 33.9897 27.4778 34.362C27.3178 34.5481 27.1993 34.7823 27.1222 35.0705C27.0452 35.3527 27.0037 35.6889 27.0037 36.0732C27.0037 36.3854 27.0392 36.6676 27.1104 36.9258C27.1815 37.184 27.2882 37.4061 27.4304 37.6043C27.7208 37.9945 28.1476 38.1927 28.7106 38.1927Z" fill="#00AFAA"/>
<path d="M33.855 36.9978C33.855 37.1179 33.8431 37.244 33.8254 37.3701C33.8076 37.4782 33.7839 37.5922 33.7483 37.7183C33.7127 37.8384 33.6594 37.9525 33.5942 38.0546C33.5349 38.1506 33.4697 38.2287 33.3986 38.2947C33.3275 38.3608 33.2564 38.4148 33.1852 38.4629C33.1141 38.5109 33.043 38.5469 32.9719 38.5769C32.9008 38.607 32.8415 38.637 32.7822 38.661C32.717 38.685 32.6518 38.709 32.5748 38.721C32.4977 38.733 32.4207 38.745 32.3377 38.745C32.2606 38.745 32.1777 38.745 32.0947 38.745H31.8635C31.5079 38.745 31.2175 38.637 30.9863 38.4148C30.7611 38.1987 30.6426 37.9225 30.6426 37.5922C30.6426 37.232 30.7552 36.9498 30.9804 36.7517C31.1997 36.5535 31.4901 36.4334 31.8576 36.3854L32.8889 36.2533C33.043 36.2293 33.1378 36.1692 33.1852 36.0612C33.2149 36.0131 33.2267 35.9291 33.2267 35.809C33.2267 35.755 33.2267 35.7009 33.2149 35.6529C33.1852 35.5088 33.1082 35.3947 32.9956 35.3227C32.8356 35.2206 32.6103 35.1726 32.3258 35.1726C32.2547 35.1726 32.1895 35.1725 32.1302 35.1846C32.071 35.1966 32.0058 35.2026 31.9465 35.2206C31.905 35.2326 31.8458 35.2446 31.7865 35.2566C31.7272 35.2686 31.662 35.2866 31.6027 35.3046C31.5375 35.3227 31.4664 35.3407 31.3894 35.3587V34.7763C31.4605 34.7583 31.5316 34.7402 31.6027 34.7222C31.662 34.7102 31.7272 34.6922 31.7865 34.6802C31.8517 34.6682 31.905 34.6562 31.9465 34.6442C32.071 34.6202 32.2014 34.6082 32.3377 34.6082C32.7881 34.6082 33.1556 34.6982 33.4401 34.8723C33.7187 35.0465 33.8609 35.3166 33.8609 35.6889V36.9798L33.855 36.9978ZM33.209 36.6976C33.1675 36.7156 33.126 36.7276 33.0963 36.7396C33.0667 36.7517 33.0311 36.7637 32.9956 36.7697C32.96 36.7817 32.9304 36.7877 32.9067 36.7937C32.8593 36.8057 32.7941 36.8177 32.717 36.8297C32.64 36.8417 32.5688 36.8537 32.5096 36.8597L32.1184 36.9138C31.9999 36.9318 31.8991 36.9498 31.822 36.9678C31.745 36.9858 31.6679 37.0098 31.6087 37.0459C31.4072 37.1599 31.3064 37.3401 31.3064 37.5922C31.3064 37.7784 31.3775 37.9285 31.5138 38.0366C31.6502 38.1446 31.8102 38.1987 31.9939 38.1987C32.2251 38.1987 32.4444 38.1446 32.6577 38.0426C33.0134 37.8624 33.1971 37.5742 33.1971 37.1719V36.7036L33.209 36.6976Z" fill="#00AFAA"/>
<path d="M35.29 38.7091V36.1453C35.29 35.8571 35.3434 35.6169 35.4501 35.4188C35.5568 35.2206 35.6931 35.0705 35.859 34.9565C36.025 34.8424 36.2087 34.7583 36.4102 34.7043C36.6118 34.6562 36.8073 34.6262 36.997 34.6262V35.2927C36.8844 35.2927 36.7599 35.3047 36.6414 35.3287C36.5228 35.3527 36.4043 35.4008 36.3035 35.4608C36.2028 35.5269 36.1198 35.6109 36.0487 35.719C35.9835 35.8271 35.9479 35.9652 35.9479 36.1333V38.7031H35.29V38.7091Z" fill="#00AFAA"/>
<path d="M41.0508 38.7091V36.1453C41.0508 35.8571 41.1041 35.6169 41.2108 35.4188C41.3175 35.2206 41.4538 35.0705 41.6198 34.9565C41.7857 34.8424 41.9695 34.7583 42.171 34.7043C42.3725 34.6562 42.5681 34.6262 42.7577 34.6262V35.2927C42.6451 35.2927 42.5207 35.3047 42.4021 35.3287C42.2836 35.3527 42.1651 35.4008 42.0643 35.4608C41.9635 35.5269 41.8806 35.6109 41.8094 35.719C41.7442 35.8271 41.7087 35.9652 41.7087 36.1333V38.7031H41.0508V38.7091Z" fill="#00AFAA"/>
<path d="M47.6353 36.6976C47.6353 36.7576 47.6353 36.8117 47.6294 36.8657C47.6294 36.9198 47.6175 36.9738 47.6116 37.0278H47.5997H44.6007C44.6303 37.1839 44.6837 37.334 44.7548 37.4721C44.8259 37.6042 44.9148 37.7243 45.0215 37.8264C45.1282 37.9285 45.2408 38.0005 45.3712 38.0606C45.5016 38.1146 45.632 38.1446 45.7742 38.1446C45.9461 38.1446 46.1121 38.1026 46.2602 38.0185C46.4143 37.9345 46.5447 37.8264 46.6514 37.6823L47.1552 38.0726C46.9833 38.2827 46.7759 38.4508 46.5388 38.5709C46.3017 38.691 46.0469 38.757 45.7683 38.757C45.5075 38.757 45.2645 38.703 45.0393 38.5949C44.8141 38.4869 44.6125 38.3428 44.4466 38.1506C44.2806 37.9585 44.1443 37.7423 44.0495 37.4962C43.9546 37.244 43.9072 36.9798 43.9072 36.6976C43.9072 36.4154 43.9546 36.1452 44.0495 35.899C44.1443 35.6469 44.2806 35.4307 44.4466 35.2446C44.6125 35.0585 44.8141 34.9084 45.0393 34.8063C45.2645 34.6982 45.5075 34.6442 45.7683 34.6442C46.0291 34.6442 46.2662 34.6982 46.4914 34.8063C46.7166 34.9144 46.9181 35.0585 47.0841 35.2446C47.25 35.4307 47.3864 35.6529 47.4871 35.899C47.5879 36.1512 47.6353 36.4154 47.6353 36.6976ZM45.7683 35.2506C45.626 35.2506 45.4897 35.2806 45.3653 35.3346C45.2349 35.3887 45.1223 35.4667 45.0156 35.5688C44.9148 35.6709 44.8259 35.785 44.7489 35.9231C44.6718 36.0612 44.6244 36.2053 44.5948 36.3674H46.9359C46.9063 36.2053 46.8529 36.0612 46.7818 35.9231C46.7107 35.785 46.6218 35.6709 46.521 35.5688C46.4203 35.4667 46.3017 35.3887 46.1713 35.3346C46.0409 35.2806 45.9105 35.2506 45.7683 35.2506Z" fill="#00AFAA"/>
<path d="M50.5103 34.6262C50.7059 34.6262 50.8956 34.6622 51.0734 34.7403C51.2512 34.8184 51.4112 34.9204 51.5476 35.0525C51.6839 35.1846 51.7965 35.3347 51.8735 35.5088C51.9506 35.683 51.998 35.8691 51.998 36.0672V38.7091H51.3164V36.0672C51.3164 35.9471 51.2927 35.8391 51.2512 35.731C51.2097 35.6229 51.1504 35.5389 51.0734 35.4608C50.9963 35.3828 50.9074 35.3227 50.8067 35.2747C50.7059 35.2326 50.5992 35.2086 50.4807 35.2086C50.3622 35.2086 50.2555 35.2326 50.1606 35.2747C50.0658 35.3227 49.9769 35.3828 49.9117 35.4608C49.8406 35.5389 49.7872 35.6289 49.7458 35.731C49.7043 35.8331 49.6865 35.9471 49.6865 36.0672V38.7091H49.0049V36.0672C49.0049 35.8691 49.0464 35.683 49.1293 35.5088C49.2123 35.3347 49.3249 35.1786 49.4613 35.0525C49.5976 34.9204 49.7576 34.8184 49.9413 34.7403C50.1251 34.6622 50.3147 34.6262 50.5103 34.6262Z" fill="#00AFAA"/>
<path d="M54.3215 33.2512C54.446 33.2512 54.5349 33.2933 54.5882 33.3713C54.6119 33.4013 54.6238 33.4313 54.6297 33.4614C54.6356 33.4914 54.6416 33.5154 54.6416 33.5274V34.7823H55.3528V35.4307H54.6416V37.7664C54.6416 37.9105 54.689 38.0065 54.7838 38.0546C54.8371 38.0846 54.9201 38.0966 55.0446 38.0966C55.0624 38.0966 55.0742 38.0966 55.092 38.0966C55.1098 38.0966 55.1276 38.0966 55.1453 38.0966C55.1809 38.0966 55.2165 38.0966 55.2639 38.0846V38.703C55.2224 38.703 55.1809 38.715 55.1394 38.721C55.092 38.7271 55.0564 38.7331 55.0327 38.7331C54.9853 38.7331 54.9438 38.7391 54.9083 38.7451C54.8727 38.7451 54.8253 38.7451 54.7779 38.7451C54.689 38.7451 54.6119 38.7331 54.5408 38.709C54.4697 38.685 54.4104 38.655 54.363 38.619C54.3096 38.583 54.2682 38.5469 54.2385 38.5109C54.203 38.4749 54.1792 38.4449 54.1615 38.4208C54.0548 38.2647 54.0014 38.0606 54.0014 37.8084V35.4368H53.6458C53.6458 35.4368 53.6162 35.4367 53.6043 35.4307C53.5747 35.4307 53.5391 35.4127 53.5036 35.3947C53.4087 35.3467 53.3613 35.2506 53.3613 35.1125C53.3613 34.9744 53.4087 34.8844 53.5036 34.8303C53.5391 34.8123 53.5688 34.8003 53.6043 34.7943C53.6221 34.7943 53.634 34.7943 53.6458 34.7943H54.0014V33.5454C54.0014 33.5454 54.0074 33.5034 54.0133 33.4734C54.0192 33.4434 54.0311 33.4133 54.0548 33.3833C54.1081 33.3053 54.197 33.2632 54.3215 33.2632V33.2512Z" fill="#00AFAA"/>
<path d="M59.7261 36.9978C59.7261 37.1179 59.7142 37.244 59.6965 37.3701C59.6787 37.4782 59.655 37.5922 59.6194 37.7183C59.5838 37.8384 59.5305 37.9525 59.4653 38.0546C59.406 38.1506 59.3408 38.2287 59.2697 38.2947C59.1986 38.3608 59.1275 38.4148 59.0563 38.4629C58.9852 38.5109 58.9141 38.5469 58.843 38.5769C58.7718 38.607 58.7126 38.637 58.6533 38.661C58.5881 38.685 58.5229 38.709 58.4459 38.721C58.3688 38.733 58.2918 38.745 58.2088 38.745C58.1317 38.745 58.0488 38.745 57.9658 38.745H57.7346C57.379 38.745 57.0886 38.637 56.8574 38.4148C56.6322 38.1987 56.5137 37.9225 56.5137 37.5922C56.5137 37.232 56.6263 36.9498 56.8515 36.7517C57.0708 36.5535 57.3612 36.4334 57.7287 36.3854L58.76 36.2533C58.9141 36.2293 59.0089 36.1692 59.0563 36.0612C59.086 36.0131 59.0978 35.9291 59.0978 35.809C59.0978 35.755 59.0978 35.7009 59.086 35.6529C59.0563 35.5088 58.9793 35.3947 58.8667 35.3227C58.7067 35.2206 58.4814 35.1726 58.1969 35.1726C58.1258 35.1726 58.0606 35.1725 58.0013 35.1846C57.9421 35.1966 57.8769 35.2026 57.8176 35.2206C57.7761 35.2326 57.7168 35.2446 57.6576 35.2566C57.5983 35.2686 57.5331 35.2866 57.4738 35.3046C57.4086 35.3227 57.3375 35.3407 57.2605 35.3587V34.7763C57.3316 34.7583 57.4027 34.7402 57.4738 34.7222C57.5331 34.7102 57.5983 34.6922 57.6576 34.6802C57.7228 34.6682 57.7761 34.6562 57.8176 34.6442C57.9421 34.6202 58.0725 34.6082 58.2088 34.6082C58.6592 34.6082 59.0267 34.6982 59.3112 34.8723C59.5898 35.0465 59.732 35.3166 59.732 35.6889V36.9798L59.7261 36.9978ZM59.08 36.6976C59.0386 36.7156 58.9971 36.7276 58.9674 36.7396C58.9378 36.7517 58.9022 36.7637 58.8667 36.7697C58.8311 36.7817 58.8015 36.7877 58.7778 36.7937C58.7304 36.8057 58.6652 36.8177 58.5881 36.8297C58.5111 36.8417 58.4399 36.8537 58.3807 36.8597L57.9895 36.9138C57.8709 36.9318 57.7702 36.9498 57.6931 36.9678C57.6161 36.9858 57.539 37.0098 57.4798 37.0459C57.2783 37.1599 57.1775 37.3401 57.1775 37.5922C57.1775 37.7784 57.2486 37.9285 57.3849 38.0366C57.5213 38.1446 57.6813 38.1987 57.865 38.1987C58.0962 38.1987 58.3155 38.1446 58.5288 38.0426C58.8845 37.8624 59.0682 37.5742 59.0682 37.1719V36.7036L59.08 36.6976Z" fill="#00AFAA"/>
<path d="M61.825 36.3194V38.709H61.1611V33.5454C61.1611 33.4914 61.1789 33.4434 61.2026 33.4013C61.2263 33.3653 61.256 33.3293 61.3034 33.2993C61.3508 33.2692 61.4101 33.2512 61.493 33.2512C61.576 33.2512 61.6353 33.2692 61.6827 33.2993C61.7242 33.3293 61.7598 33.3653 61.7835 33.4013C61.8072 33.4434 61.825 33.4914 61.825 33.5454V36.3194Z" fill="#00AFAA"/>
<path d="M68.6944 35.3347C68.7418 35.4428 68.7714 35.5629 68.7892 35.7009H68.1372C68.1254 35.6589 68.1076 35.6229 68.0898 35.5869C68.072 35.5508 68.0542 35.5208 68.0305 35.4908C67.9001 35.3107 67.669 35.2266 67.343 35.2266C67.0763 35.2266 66.8926 35.2807 66.7799 35.3947C66.7266 35.4548 66.6851 35.5148 66.6555 35.5749C66.6258 35.6349 66.614 35.707 66.614 35.785C66.614 35.9351 66.6733 36.0492 66.7977 36.1212C66.8866 36.1693 67.1 36.2353 67.4319 36.3134L67.9357 36.4335C68.1906 36.4935 68.3862 36.5776 68.5284 36.6856C68.7773 36.8778 68.9018 37.154 68.9018 37.5142C68.9018 37.9585 68.7418 38.2768 68.4276 38.4749C68.1254 38.661 67.7697 38.7571 67.3726 38.7571C67.1356 38.7571 66.9281 38.7271 66.7444 38.661C66.5547 38.595 66.3947 38.4989 66.2643 38.3728C66.128 38.2527 66.0272 38.1026 65.9561 37.9285C65.9146 37.8144 65.885 37.6943 65.8672 37.5562H66.5132C66.531 37.6643 66.5666 37.7544 66.6199 37.8324C66.7681 38.0606 67.0289 38.1687 67.4023 38.1687C67.5742 38.1687 67.7283 38.1447 67.8764 38.0906C68.0068 38.0426 68.1076 37.9765 68.1669 37.8985C68.2261 37.8204 68.2617 37.7184 68.2617 37.5983C68.2617 37.4182 68.2143 37.2921 68.1135 37.22C67.995 37.142 67.8053 37.0699 67.5564 37.0099L67.0644 36.8958C66.7385 36.8177 66.5073 36.7337 66.3651 36.6376C66.1161 36.4695 65.9857 36.2113 65.9857 35.8691C65.9857 35.5268 66.1043 35.2146 66.3473 34.9804C66.4599 34.8664 66.6081 34.7763 66.7859 34.7163C66.9518 34.6622 67.1415 34.6322 67.3549 34.6322C67.752 34.6322 68.0898 34.7343 68.3684 34.9324C68.5106 35.0405 68.6173 35.1726 68.6884 35.3407L68.6944 35.3347Z" fill="#00AFAA"/>
<path d="M72.0135 34.6382C72.2683 34.6382 72.5113 34.6922 72.7366 34.8003C72.9618 34.9084 73.1633 35.0525 73.3293 35.2386C73.5011 35.4247 73.6315 35.6469 73.7323 35.8931C73.8331 36.1452 73.8805 36.4094 73.8805 36.6916C73.8805 36.9738 73.8331 37.244 73.7323 37.4902C73.6315 37.7364 73.5011 37.9585 73.3293 38.1446C73.1633 38.3308 72.9618 38.4809 72.7366 38.5889C72.5113 38.697 72.2683 38.7511 72.0135 38.7511C71.7586 38.7511 71.5097 38.697 71.2845 38.5889C71.0592 38.4809 70.8636 38.3368 70.6918 38.1446C70.5258 37.9585 70.3895 37.7364 70.2947 37.4902C70.1998 37.238 70.1465 36.9738 70.1465 36.6916C70.1465 36.4094 70.1939 36.1392 70.2947 35.8931C70.3895 35.6409 70.5258 35.4247 70.6918 35.2386C70.8636 35.0525 71.0592 34.9024 71.2845 34.8003C71.5097 34.6922 71.7527 34.6382 72.0135 34.6382ZM72.0135 38.1446C72.1794 38.1446 72.3335 38.1086 72.4817 38.0306C72.6299 37.9525 72.7544 37.8504 72.867 37.7183C72.9736 37.5862 73.0626 37.4361 73.1218 37.256C73.1811 37.0759 73.2167 36.8898 73.2167 36.6916C73.2167 36.4935 73.187 36.3074 73.1218 36.1272C73.0566 35.9531 72.9736 35.797 72.867 35.6649C72.7603 35.5328 72.6299 35.4307 72.4817 35.3527C72.3335 35.2746 72.1794 35.2386 72.0135 35.2386C71.8475 35.2386 71.6875 35.2746 71.5393 35.3527C71.3911 35.4307 71.2667 35.5328 71.1541 35.6649C71.0415 35.797 70.9585 35.9471 70.8992 36.1272C70.834 36.3013 70.8044 36.4935 70.8044 36.6916C70.8044 36.8898 70.834 37.0759 70.8992 37.256C70.9644 37.4361 71.0474 37.5862 71.1541 37.7183C71.2608 37.8504 71.3911 37.9525 71.5393 38.0306C71.6875 38.1086 71.8416 38.1446 72.0135 38.1446Z" fill="#00AFAA"/>
<path d="M75.8718 36.3194V38.709H75.208V33.5454C75.208 33.4914 75.2258 33.4434 75.2495 33.4013C75.2732 33.3653 75.3028 33.3293 75.3503 33.2993C75.3977 33.2692 75.4569 33.2512 75.5399 33.2512C75.6229 33.2512 75.6822 33.2692 75.7296 33.2993C75.7711 33.3293 75.8066 33.3653 75.8303 33.4013C75.854 33.4434 75.8718 33.4914 75.8718 33.5454V36.3194Z" fill="#00AFAA"/>
<path d="M78.7401 38.7571C78.5504 38.7571 78.3726 38.7211 78.1948 38.649C78.0229 38.577 77.8688 38.4749 77.7325 38.3488C77.6021 38.2227 77.4954 38.0726 77.4183 37.9045C77.3413 37.7364 77.2998 37.5562 77.2998 37.3641V34.7943H77.9577V37.3641C77.9577 37.4782 77.9814 37.5863 78.0229 37.6883C78.0644 37.7904 78.1236 37.8745 78.1948 37.9525C78.2659 38.0246 78.3548 38.0846 78.4496 38.1326C78.5445 38.1807 78.6512 38.1987 78.7638 38.1987C78.8764 38.1987 78.9831 38.1747 79.0779 38.1326C79.1727 38.0906 79.2557 38.0306 79.3209 37.9525C79.3861 37.8805 79.4394 37.7904 79.475 37.6883C79.5106 37.5863 79.5343 37.4782 79.5343 37.3641V34.7943H80.1922V37.3641C80.1922 37.5562 80.1507 37.7364 80.0736 37.9105C79.9907 38.0786 79.884 38.2287 79.7476 38.3548C79.6113 38.4809 79.4572 38.583 79.2853 38.655C79.1075 38.7271 78.9297 38.7631 78.7401 38.7631V38.7571Z" fill="#00AFAA"/>
<path d="M82.4924 33.2512C82.6169 33.2512 82.7058 33.2933 82.7591 33.3713C82.7828 33.4013 82.7947 33.4313 82.8006 33.4614C82.8065 33.4914 82.8125 33.5154 82.8125 33.5274V34.7823H83.5237V35.4307H82.8125V37.7664C82.8125 37.9105 82.8599 38.0065 82.9547 38.0546C83.008 38.0846 83.091 38.0966 83.2155 38.0966C83.2333 38.0966 83.2451 38.0966 83.2629 38.0966C83.2807 38.0966 83.2985 38.0966 83.3162 38.0966C83.3518 38.0966 83.3874 38.0966 83.4348 38.0846V38.703C83.3933 38.703 83.3518 38.715 83.3103 38.721C83.2629 38.7271 83.2273 38.7331 83.2036 38.7331C83.1562 38.7331 83.1147 38.7391 83.0792 38.7451C83.0436 38.7451 82.9962 38.7451 82.9488 38.7451C82.8599 38.7451 82.7828 38.7331 82.7117 38.709C82.6406 38.685 82.5813 38.655 82.5339 38.619C82.4805 38.583 82.439 38.5469 82.4094 38.5109C82.3739 38.4749 82.3502 38.4449 82.3324 38.4208C82.2257 38.2647 82.1723 38.0606 82.1723 37.8084V35.4368H81.8167C81.8167 35.4368 81.7871 35.4367 81.7752 35.4307C81.7456 35.4307 81.71 35.4127 81.6745 35.3947C81.5796 35.3467 81.5322 35.2506 81.5322 35.1125C81.5322 34.9744 81.5796 34.8844 81.6745 34.8303C81.71 34.8123 81.7397 34.8003 81.7752 34.7943C81.793 34.7943 81.8049 34.7943 81.8167 34.7943H82.1723V33.5454C82.1723 33.5454 82.1783 33.5034 82.1842 33.4734C82.1901 33.4434 82.202 33.4133 82.2257 33.3833C82.279 33.3053 82.3679 33.2632 82.4924 33.2632V33.2512Z" fill="#00AFAA"/>
<path d="M85.5623 33.6775C85.5623 33.7315 85.5504 33.7796 85.5327 33.8276C85.5149 33.8756 85.4852 33.9116 85.4497 33.9477C85.4141 33.9837 85.3786 34.0077 85.3311 34.0317C85.2837 34.0497 85.2363 34.0618 85.183 34.0618C85.1296 34.0618 85.0822 34.0497 85.0407 34.0317C84.9992 34.0137 84.9577 33.9837 84.9222 33.9477C84.8866 33.9116 84.8629 33.8756 84.8392 33.8276C84.8155 33.7796 84.8096 33.7315 84.8096 33.6775C84.8096 33.6234 84.8214 33.5754 84.8392 33.5274C84.857 33.4793 84.8866 33.4433 84.9222 33.4073C84.9577 33.3713 84.9933 33.3473 85.0407 33.3232C85.0881 33.2992 85.1356 33.2932 85.183 33.2932C85.2897 33.2932 85.3786 33.3292 85.4497 33.4073C85.5208 33.4853 85.5623 33.5694 85.5623 33.6775ZM84.857 34.7823H85.5267V38.709H84.857V34.7823Z" fill="#00AFAA"/>
<path d="M88.7215 34.6382C88.9764 34.6382 89.2194 34.6922 89.4446 34.8003C89.6698 34.9084 89.8713 35.0525 90.0373 35.2386C90.2092 35.4247 90.3396 35.6469 90.4403 35.8931C90.5411 36.1452 90.5885 36.4094 90.5885 36.6916C90.5885 36.9738 90.5411 37.244 90.4403 37.4902C90.3396 37.7364 90.2092 37.9585 90.0373 38.1446C89.8713 38.3308 89.6698 38.4809 89.4446 38.5889C89.2194 38.697 88.9764 38.7511 88.7215 38.7511C88.4666 38.7511 88.2177 38.697 87.9925 38.5889C87.7673 38.4809 87.5717 38.3368 87.3998 38.1446C87.2338 37.9585 87.0975 37.7364 87.0027 37.4902C86.9078 37.238 86.8545 36.9738 86.8545 36.6916C86.8545 36.4094 86.9019 36.1392 87.0027 35.8931C87.0975 35.6409 87.2338 35.4247 87.3998 35.2386C87.5717 35.0525 87.7673 34.9024 87.9925 34.8003C88.2177 34.6922 88.4607 34.6382 88.7215 34.6382ZM88.7215 38.1446C88.8874 38.1446 89.0415 38.1086 89.1897 38.0306C89.3379 37.9525 89.4624 37.8504 89.575 37.7183C89.6817 37.5862 89.7706 37.4361 89.8298 37.256C89.8891 37.0759 89.9247 36.8898 89.9247 36.6916C89.9247 36.4935 89.895 36.3074 89.8298 36.1272C89.7646 35.9531 89.6817 35.797 89.575 35.6649C89.4683 35.5328 89.3379 35.4307 89.1897 35.3527C89.0415 35.2746 88.8874 35.2386 88.7215 35.2386C88.5555 35.2386 88.3955 35.2746 88.2473 35.3527C88.0992 35.4307 87.9747 35.5328 87.8621 35.6649C87.7495 35.797 87.6665 35.9471 87.6072 36.1272C87.542 36.3013 87.5124 36.4935 87.5124 36.6916C87.5124 36.8898 87.542 37.0759 87.6072 37.256C87.6724 37.4361 87.7554 37.5862 87.8621 37.7183C87.9688 37.8504 88.0992 37.9525 88.2473 38.0306C88.3955 38.1086 88.5496 38.1446 88.7215 38.1446Z" fill="#00AFAA"/>
<path d="M93.4683 34.6262C93.6639 34.6262 93.8536 34.6622 94.0314 34.7403C94.2092 34.8184 94.3692 34.9204 94.5056 35.0525C94.6419 35.1846 94.7545 35.3347 94.8315 35.5088C94.9086 35.683 94.956 35.8691 94.956 36.0672V38.7091H94.2744V36.0672C94.2744 35.9471 94.2507 35.8391 94.2092 35.731C94.1677 35.6229 94.1084 35.5389 94.0314 35.4608C93.9543 35.3828 93.8654 35.3227 93.7647 35.2747C93.6639 35.2326 93.5572 35.2086 93.4387 35.2086C93.3202 35.2086 93.2135 35.2326 93.1186 35.2747C93.0238 35.3227 92.9349 35.3828 92.8697 35.4608C92.7986 35.5389 92.7453 35.6289 92.7038 35.731C92.6623 35.8331 92.6445 35.9471 92.6445 36.0672V38.7091H91.9629V36.0672C91.9629 35.8691 92.0044 35.683 92.0874 35.5088C92.1703 35.3347 92.2829 35.1786 92.4193 35.0525C92.5556 34.9204 92.7156 34.8184 92.8994 34.7403C93.0831 34.6622 93.2727 34.6262 93.4683 34.6262Z" fill="#00AFAA"/>
<path d="M99.0635 35.3347C99.1109 35.4428 99.1405 35.5629 99.1583 35.7009H98.5064C98.4945 35.6589 98.4767 35.6229 98.4589 35.5869C98.4412 35.5508 98.4234 35.5208 98.3997 35.4908C98.2693 35.3107 98.0381 35.2266 97.7121 35.2266C97.4454 35.2266 97.2617 35.2807 97.1491 35.3947C97.0957 35.4548 97.0543 35.5148 97.0246 35.5749C96.995 35.6349 96.9831 35.707 96.9831 35.785C96.9831 35.9351 97.0424 36.0492 97.1669 36.1212C97.2558 36.1693 97.4691 36.2353 97.801 36.3134L98.3048 36.4335C98.5597 36.4935 98.7553 36.5776 98.8975 36.6856C99.1465 36.8778 99.2709 37.154 99.2709 37.5142C99.2709 37.9585 99.1109 38.2768 98.7968 38.4749C98.4945 38.661 98.1389 38.7571 97.7418 38.7571C97.5047 38.7571 97.2973 38.7271 97.1135 38.661C96.9239 38.595 96.7638 38.4989 96.6334 38.3728C96.4971 38.2527 96.3964 38.1026 96.3252 37.9285C96.2837 37.8144 96.2541 37.6943 96.2363 37.5562H96.8824C96.9002 37.6643 96.9357 37.7544 96.9891 37.8324C97.1372 38.0606 97.398 38.1687 97.7714 38.1687C97.9433 38.1687 98.0974 38.1447 98.2456 38.0906C98.376 38.0426 98.4767 37.9765 98.536 37.8985C98.5953 37.8204 98.6308 37.7184 98.6308 37.5983C98.6308 37.4182 98.5834 37.2921 98.4827 37.22C98.3641 37.142 98.1744 37.0699 97.9255 37.0099L97.4336 36.8958C97.1076 36.8177 96.8764 36.7337 96.7342 36.6376C96.4853 36.4695 96.3549 36.2113 96.3549 35.8691C96.3549 35.5268 96.4734 35.2146 96.7164 34.9804C96.829 34.8664 96.9772 34.7763 97.155 34.7163C97.321 34.6622 97.5106 34.6322 97.724 34.6322C98.1211 34.6322 98.4589 34.7343 98.7375 34.9324C98.8798 35.0405 98.9864 35.1726 99.0576 35.3407L99.0635 35.3347Z" fill="#00AFAA"/>
<path d="M115.641 38.2649C115.434 38.2649 115.262 38.2349 115.125 38.1808C114.989 38.1268 114.882 38.0547 114.799 37.9647C114.716 37.8746 114.657 37.7665 114.628 37.6465C114.592 37.5264 114.574 37.3943 114.574 37.2622V36.0734H115.167V37.1001C115.167 37.3282 115.208 37.4843 115.291 37.5564C115.374 37.6284 115.511 37.6645 115.7 37.6645H119.494V35.4129H120.086V38.2649H115.641ZM116.661 33.9779C116.661 33.8818 116.696 33.8038 116.761 33.7317C116.826 33.6657 116.909 33.6296 117.004 33.6296C117.099 33.6296 117.176 33.6657 117.247 33.7317C117.312 33.7978 117.348 33.8818 117.348 33.9779C117.348 34.074 117.312 34.152 117.247 34.2241C117.182 34.2901 117.099 34.3261 117.004 34.3261C116.909 34.3261 116.832 34.2901 116.761 34.2241C116.696 34.158 116.661 34.074 116.661 33.9779ZM117.644 33.9779C117.644 33.8818 117.68 33.8038 117.745 33.7317C117.81 33.6597 117.893 33.6296 117.988 33.6296C118.083 33.6296 118.16 33.6657 118.231 33.7317C118.296 33.7978 118.332 33.8818 118.332 33.9779C118.332 34.074 118.296 34.152 118.231 34.2241C118.166 34.2901 118.083 34.3261 117.988 34.3261C117.893 34.3261 117.816 34.2901 117.745 34.2241C117.674 34.158 117.644 34.074 117.644 33.9779Z" fill="#00AFAA"/>
<path d="M121.266 32.885H121.835V38.2648H121.266V32.885Z" fill="#00AFAA"/>
<path d="M124.289 38.2949C124.289 38.511 124.259 38.7092 124.206 38.9013C124.147 39.0874 124.064 39.2556 123.951 39.3937C123.838 39.5317 123.696 39.6458 123.53 39.7239C123.364 39.8019 123.175 39.844 122.961 39.844C122.849 39.844 122.742 39.844 122.647 39.826C122.552 39.8079 122.475 39.8079 122.422 39.7959C122.434 39.6879 122.446 39.5918 122.457 39.4897C122.475 39.3936 122.487 39.2976 122.493 39.2015L122.665 39.2315C122.712 39.2435 122.766 39.2496 122.819 39.2496C122.872 39.2496 122.92 39.2496 122.961 39.2496C123.246 39.2496 123.441 39.1655 123.542 38.9974C123.643 38.8293 123.696 38.5711 123.696 38.2228V35.4069H124.289V38.2889V38.2949Z" fill="#00AFAA"/>
<path d="M125.474 32.885H126.066V37.6644H126.647C126.76 37.6644 126.819 37.7064 126.819 37.7964V38.0846C126.819 38.2047 126.76 38.2648 126.647 38.2648H125.474V32.885Z" fill="#00AFAA"/>
<path d="M126.535 38.2644C126.423 38.2644 126.363 38.2224 126.363 38.1324V37.8444C126.363 37.7244 126.423 37.6644 126.535 37.6644H127.543C127.655 37.6644 127.715 37.7124 127.715 37.8024V38.0844C127.715 38.2044 127.655 38.2644 127.543 38.2644H126.535Z" fill="#00AFAA"/>
<path d="M127.436 38.2644C127.323 38.2644 127.264 38.2224 127.264 38.1324V37.8444C127.264 37.7244 127.323 37.6644 127.436 37.6644H128.443C128.556 37.6644 128.615 37.7124 128.615 37.8024V38.0844C128.615 38.2044 128.556 38.2644 128.443 38.2644H127.436Z" fill="#00AFAA"/>
<path d="M128.343 38.2644C128.23 38.2644 128.171 38.2224 128.171 38.1324V37.8444C128.171 37.7244 128.23 37.6644 128.343 37.6644H129.35C129.463 37.6644 129.522 37.7124 129.522 37.8024V38.0844C129.522 38.2044 129.463 38.2644 129.35 38.2644H128.343Z" fill="#00AFAA"/>
<path d="M129.243 38.2644C129.131 38.2644 129.071 38.2224 129.071 38.1324V37.8444C129.071 37.7244 129.131 37.6644 129.243 37.6644H130.251C130.363 37.6644 130.423 37.7124 130.423 37.8024V38.0844C130.423 38.2044 130.363 38.2644 130.251 38.2644H129.243Z" fill="#00AFAA"/>
<path d="M130.15 38.2649C130.038 38.2649 129.979 38.2228 129.979 38.1328V37.8446C129.979 37.7245 130.038 37.6644 130.15 37.6644H130.785C130.962 37.6644 131.081 37.6104 131.146 37.5083C131.205 37.4063 131.241 37.2682 131.241 37.088V35.4069H131.834V36.7698C131.834 36.8959 131.846 37.01 131.875 37.1181C131.905 37.2261 131.946 37.3222 132.017 37.4003C132.083 37.4783 132.171 37.5444 132.278 37.5864C132.385 37.6344 132.521 37.6524 132.681 37.6524H132.841C132.954 37.6524 133.013 37.6945 133.013 37.7845V38.0727C133.013 38.1928 132.954 38.2529 132.841 38.2529H132.658C132.432 38.2529 132.243 38.2108 132.089 38.1208C131.928 38.0307 131.822 37.8806 131.763 37.6764C131.709 37.8025 131.65 37.8986 131.585 37.9767C131.52 38.0547 131.448 38.1088 131.371 38.1508C131.294 38.1928 131.211 38.2168 131.122 38.2348C131.034 38.2529 130.939 38.2589 130.838 38.2589H130.156L130.15 38.2649ZM130.719 39.4717C130.719 39.3756 130.755 39.2976 130.82 39.2255C130.885 39.1595 130.968 39.1235 131.063 39.1235C131.158 39.1235 131.235 39.1595 131.306 39.2255C131.377 39.2916 131.407 39.3756 131.407 39.4717C131.407 39.5678 131.371 39.6458 131.306 39.7179C131.241 39.7839 131.158 39.8199 131.063 39.8199C130.968 39.8199 130.891 39.7839 130.82 39.7179C130.755 39.6518 130.719 39.5678 130.719 39.4717ZM131.703 39.4717C131.703 39.3756 131.739 39.2976 131.804 39.2255C131.869 39.1535 131.952 39.1235 132.047 39.1235C132.142 39.1235 132.219 39.1595 132.29 39.2255C132.355 39.2916 132.391 39.3756 132.391 39.4717C132.391 39.5678 132.355 39.6458 132.29 39.7179C132.225 39.7839 132.142 39.8199 132.047 39.8199C131.952 39.8199 131.875 39.7839 131.804 39.7179C131.739 39.6518 131.703 39.5678 131.703 39.4717Z" fill="#00AFAA"/>
<path d="M132.729 38.2648C132.616 38.2648 132.557 38.2228 132.557 38.1327V37.8445C132.557 37.7245 132.616 37.6644 132.729 37.6644H133.949C134.127 37.6644 134.246 37.6104 134.305 37.5083C134.364 37.4062 134.394 37.2681 134.394 37.094V36.1634H134.987V36.7818C134.987 36.9019 134.999 37.016 135.028 37.124C135.058 37.2321 135.099 37.3282 135.17 37.4062C135.236 37.4843 135.325 37.5503 135.431 37.5984C135.538 37.6464 135.674 37.6704 135.834 37.6704H135.977C136.16 37.6704 136.279 37.6164 136.332 37.5143C136.385 37.4122 136.415 37.2741 136.415 37.1V35.8572H137.008V36.7878C137.008 36.9139 137.02 37.028 137.049 37.136C137.079 37.2441 137.12 37.3402 137.192 37.4182C137.263 37.4963 137.346 37.5623 137.452 37.6044C137.559 37.6464 137.695 37.6704 137.855 37.6704H138.039C138.229 37.6704 138.359 37.6164 138.412 37.5143C138.472 37.4122 138.495 37.2741 138.495 37.094V35.4128H139.07V36.7758C139.07 36.9019 139.082 37.016 139.112 37.124C139.142 37.2321 139.189 37.3282 139.254 37.4062C139.319 37.4843 139.408 37.5503 139.515 37.5924C139.622 37.6404 139.758 37.6584 139.918 37.6584H140.09C140.202 37.6584 140.262 37.7004 140.262 37.7905V38.0787C140.262 38.1988 140.202 38.2588 140.09 38.2588H139.9C139.687 38.2588 139.503 38.2168 139.343 38.1388C139.183 38.0547 139.07 37.9046 139.005 37.6824C138.952 37.8145 138.893 37.9226 138.821 37.9946C138.756 38.0727 138.679 38.1267 138.602 38.1688C138.525 38.2108 138.442 38.2348 138.353 38.2408C138.264 38.2528 138.175 38.2528 138.081 38.2528H137.826C137.606 38.2528 137.417 38.2108 137.275 38.1327C137.132 38.0547 137.014 37.8986 136.931 37.6704C136.818 37.9106 136.682 38.0607 136.528 38.1388C136.374 38.2108 136.202 38.2528 136.012 38.2528H135.805C135.585 38.2528 135.396 38.2108 135.247 38.1327C135.099 38.0487 134.981 37.8986 134.904 37.6764C134.85 37.8025 134.785 37.9046 134.72 37.9826C134.655 38.0607 134.578 38.1147 134.495 38.1568C134.412 38.1988 134.323 38.2228 134.228 38.2348C134.133 38.2468 134.038 38.2528 133.932 38.2528H132.717L132.729 38.2648Z" fill="#00AFAA"/>
<path d="M139.989 38.2648C139.877 38.2648 139.817 38.2227 139.817 38.1327V37.8445C139.817 37.7244 139.877 37.6644 139.989 37.6644H140.944V32.885H141.536V38.2648H139.989Z" fill="#00AFAA"/>
<path d="M142.716 32.885H143.285V38.2648H142.716V32.885Z" fill="#00AFAA"/>
<path d="M148.654 37.6644C148.767 37.6644 148.826 37.7065 148.826 37.7965V38.0847C148.826 38.2048 148.767 38.2649 148.654 38.2649H148.512C148.429 38.2649 148.346 38.2649 148.257 38.2529C148.174 38.2408 148.091 38.2168 148.014 38.1808C147.937 38.1448 147.86 38.0907 147.795 38.0187C147.729 37.9466 147.676 37.8506 147.635 37.7305V38.2949C147.635 38.511 147.605 38.7092 147.546 38.9013C147.486 39.0874 147.403 39.2556 147.291 39.3937C147.178 39.5317 147.042 39.6458 146.876 39.7239C146.71 39.8019 146.52 39.844 146.307 39.844C146.194 39.844 146.088 39.844 145.993 39.826C145.898 39.8079 145.821 39.8079 145.768 39.7959L145.833 39.2015L146.005 39.2315C146.052 39.2435 146.105 39.2496 146.159 39.2496C146.212 39.2496 146.265 39.2496 146.307 39.2496C146.591 39.2496 146.787 39.1655 146.888 38.9974C146.989 38.8293 147.042 38.5711 147.042 38.2228V35.4069H147.635V36.7698C147.635 36.8959 147.646 37.01 147.676 37.1181C147.706 37.2261 147.753 37.3222 147.818 37.4003C147.884 37.4783 147.972 37.5444 148.079 37.5864C148.186 37.6344 148.322 37.6524 148.488 37.6524H148.654V37.6644Z" fill="#00AFAA"/>
<path d="M148.548 38.2644C148.435 38.2644 148.376 38.2224 148.376 38.1324V37.8444C148.376 37.7244 148.435 37.6644 148.548 37.6644H149.555C149.668 37.6644 149.727 37.7124 149.727 37.8024V38.0844C149.727 38.2044 149.668 38.2644 149.555 38.2644H148.548Z" fill="#00AFAA"/>
<path d="M149.448 38.2644C149.336 38.2644 149.276 38.2224 149.276 38.1324V37.8444C149.276 37.7244 149.336 37.6644 149.448 37.6644H150.456C150.568 37.6644 150.628 37.7124 150.628 37.8024V38.0844C150.628 38.2044 150.568 38.2644 150.456 38.2644H149.448Z" fill="#00AFAA"/>
<path d="M150.355 38.2644C150.243 38.2644 150.184 38.2224 150.184 38.1324V37.8444C150.184 37.7244 150.243 37.6644 150.355 37.6644H151.363C151.476 37.6644 151.535 37.7124 151.535 37.8024V38.0844C151.535 38.2044 151.476 38.2644 151.363 38.2644H150.355Z" fill="#00AFAA"/>
<path d="M151.256 38.2649C151.143 38.2649 151.084 38.2228 151.084 38.1328V37.8446C151.084 37.7245 151.143 37.6644 151.256 37.6644H151.89C152.068 37.6644 152.186 37.6104 152.252 37.5083C152.311 37.4063 152.346 37.2682 152.346 37.088V35.4069H152.939V36.7698C152.939 36.8959 152.951 37.01 152.981 37.1181C153.01 37.2261 153.052 37.3222 153.123 37.4003C153.188 37.4783 153.277 37.5444 153.384 37.5864C153.49 37.6344 153.627 37.6524 153.787 37.6524H153.947C154.059 37.6524 154.119 37.6945 154.119 37.7845V38.0727C154.119 38.1928 154.059 38.2529 153.947 38.2529H153.763C153.538 38.2529 153.348 38.2108 153.194 38.1208C153.034 38.0307 152.927 37.8806 152.868 37.6764C152.815 37.8025 152.755 37.8986 152.69 37.9767C152.625 38.0547 152.554 38.1088 152.477 38.1508C152.4 38.1928 152.317 38.2168 152.228 38.2348C152.139 38.2529 152.044 38.2589 151.943 38.2589H151.262L151.256 38.2649ZM151.825 39.4717C151.825 39.3756 151.86 39.2976 151.926 39.2255C151.991 39.1595 152.074 39.1235 152.169 39.1235C152.263 39.1235 152.34 39.1595 152.412 39.2255C152.483 39.2916 152.512 39.3756 152.512 39.4717C152.512 39.5678 152.477 39.6458 152.412 39.7179C152.346 39.7839 152.263 39.8199 152.169 39.8199C152.074 39.8199 151.997 39.7839 151.926 39.7179C151.86 39.6518 151.825 39.5678 151.825 39.4717ZM152.809 39.4717C152.809 39.3756 152.844 39.2976 152.909 39.2255C152.975 39.1535 153.058 39.1235 153.152 39.1235C153.247 39.1235 153.324 39.1595 153.395 39.2255C153.461 39.2916 153.496 39.3756 153.496 39.4717C153.496 39.5678 153.461 39.6458 153.395 39.7179C153.33 39.7839 153.247 39.8199 153.152 39.8199C153.058 39.8199 152.981 39.7839 152.909 39.7179C152.844 39.6518 152.809 39.5678 152.809 39.4717Z" fill="#00AFAA"/>
<path d="M156.448 37.6644C156.306 37.5022 156.193 37.3281 156.122 37.136C156.051 36.9439 155.997 36.7637 155.974 36.5956C155.902 36.0132 155.63 35.719 155.168 35.719C155.067 35.719 154.948 35.731 154.812 35.761C154.676 35.791 154.533 35.8331 154.397 35.8931C154.373 35.785 154.344 35.683 154.32 35.5989C154.29 35.5149 154.267 35.4188 154.243 35.3227C154.373 35.2807 154.545 35.2387 154.741 35.1846C154.936 35.1306 155.138 35.1066 155.339 35.1066C155.541 35.1066 155.713 35.1366 155.861 35.2026C156.009 35.2687 156.134 35.3587 156.228 35.4788C156.329 35.5989 156.406 35.737 156.46 35.8991C156.519 36.0612 156.554 36.2414 156.572 36.4335C156.59 36.5416 156.602 36.6557 156.62 36.7637C156.637 36.8718 156.661 36.9799 156.703 37.088C156.738 37.196 156.792 37.2921 156.857 37.3822C156.922 37.4722 157.005 37.5563 157.118 37.6283V38.2648H153.834C153.721 38.2648 153.662 38.2227 153.662 38.1327V37.8445C153.662 37.7244 153.721 37.6644 153.834 37.6644H156.448ZM155.019 39.4716C155.019 39.3756 155.055 39.2975 155.12 39.2255C155.185 39.1594 155.268 39.1234 155.363 39.1234C155.458 39.1234 155.535 39.1594 155.606 39.2255C155.671 39.2915 155.707 39.3756 155.707 39.4716C155.707 39.5677 155.671 39.6457 155.606 39.7178C155.541 39.7898 155.458 39.8199 155.363 39.8199C155.268 39.8199 155.191 39.7838 155.12 39.7178C155.049 39.6517 155.019 39.5677 155.019 39.4716Z" fill="#00AFAA"/>
<path d="M158.843 31.2339C158.79 31.2159 158.725 31.2099 158.659 31.2099C158.547 31.2099 158.452 31.2399 158.369 31.2939C158.292 31.348 158.25 31.432 158.25 31.5521C158.25 31.6722 158.298 31.7623 158.393 31.8583C158.487 31.9544 158.636 32.0024 158.843 32.0024H158.914V32.2786H157.788V32.0024H158.209C158.108 31.9244 158.043 31.8403 158.013 31.7443C157.984 31.6482 157.966 31.5701 157.966 31.5161C157.966 31.354 158.025 31.2219 158.138 31.1078C158.25 30.9937 158.41 30.9397 158.618 30.9397C158.695 30.9397 158.784 30.9457 158.885 30.9637L158.843 31.2399V31.2339ZM158.079 32.8851H158.671V37.6644H159.252C159.365 37.6644 159.424 37.7064 159.424 37.7965V38.0847C159.424 38.2048 159.365 38.2648 159.252 38.2648H158.079V32.8851Z" fill="#00AFAA"/>
<path d="M159.139 38.2644C159.026 38.2644 158.967 38.2224 158.967 38.1324V37.8444C158.967 37.7244 159.026 37.6644 159.139 37.6644H160.146C160.259 37.6644 160.318 37.7124 160.318 37.8024V38.0844C160.318 38.2044 160.259 38.2644 160.146 38.2644H159.139Z" fill="#00AFAA"/>
<path d="M160.046 38.2649C159.933 38.2649 159.874 38.2229 159.874 38.1328V37.8446C159.874 37.7245 159.933 37.6645 160.046 37.6645H161.16V35.4129H161.753V38.2649H160.046ZM160.579 33.9779C160.579 33.8818 160.615 33.8038 160.68 33.7317C160.745 33.6657 160.828 33.6296 160.923 33.6296C161.018 33.6296 161.095 33.6657 161.166 33.7317C161.231 33.7978 161.267 33.8818 161.267 33.9779C161.267 34.074 161.231 34.152 161.166 34.2241C161.101 34.2901 161.018 34.3261 160.923 34.3261C160.828 34.3261 160.751 34.2901 160.68 34.2241C160.615 34.158 160.579 34.074 160.579 33.9779ZM161.563 33.9779C161.563 33.8818 161.599 33.8038 161.664 33.7317C161.729 33.6597 161.812 33.6296 161.907 33.6296C162.002 33.6296 162.079 33.6657 162.15 33.7317C162.215 33.7978 162.251 33.8818 162.251 33.9779C162.251 34.074 162.215 34.152 162.15 34.2241C162.085 34.2901 162.002 34.3261 161.907 34.3261C161.812 34.3261 161.735 34.2901 161.664 34.2241C161.593 34.158 161.563 34.074 161.563 33.9779Z" fill="#00AFAA"/>
<path d="M166.328 39.94C165.925 39.94 165.593 39.886 165.332 39.7719C165.066 39.6578 164.858 39.5077 164.698 39.3276C164.538 39.1475 164.432 38.9373 164.366 38.7152C164.301 38.493 164.271 38.2649 164.271 38.0487C164.271 37.8326 164.301 37.5984 164.366 37.3702C164.432 37.1421 164.52 36.9319 164.651 36.7458C164.74 36.7999 164.823 36.8479 164.906 36.8899C164.989 36.9319 165.072 36.974 165.155 37.028C165.054 37.1901 164.983 37.3582 164.941 37.5324C164.9 37.7125 164.876 37.8866 164.876 38.0547C164.876 38.1868 164.9 38.3249 164.941 38.475C164.983 38.6251 165.066 38.7632 165.172 38.8953C165.285 39.0274 165.433 39.1355 165.629 39.2195C165.824 39.3036 166.067 39.3516 166.364 39.3516C166.553 39.3516 166.743 39.3216 166.921 39.2676C167.099 39.2135 167.259 39.1295 167.395 39.0094C167.531 38.8953 167.644 38.7452 167.727 38.5651C167.81 38.385 167.851 38.1688 167.851 37.9166V32.8911H168.432V37.8806C168.432 38.1928 168.379 38.475 168.278 38.7272C168.177 38.9794 168.035 39.1955 167.845 39.3757C167.662 39.5558 167.436 39.6939 167.182 39.7959C166.927 39.898 166.636 39.9461 166.328 39.9461V39.94Z" fill="#00AFAA"/>
<path d="M173.168 37.6644C173.28 37.6644 173.34 37.7064 173.34 37.7965V38.0847C173.34 38.2048 173.28 38.2648 173.168 38.2648H172.356C172.356 38.577 172.302 38.8412 172.208 39.0574C172.113 39.2795 171.982 39.4596 171.816 39.5977C171.651 39.7358 171.455 39.8379 171.23 39.904C171.004 39.964 170.756 40 170.483 40C170.376 40 170.275 40 170.163 39.994C170.05 39.988 169.944 39.976 169.831 39.958C169.843 39.8499 169.849 39.7539 169.855 39.6638C169.861 39.5737 169.872 39.4837 169.878 39.3876C169.991 39.3996 170.104 39.4056 170.21 39.4116C170.317 39.4176 170.424 39.4236 170.524 39.4236C170.69 39.4236 170.85 39.4116 171.004 39.3816C171.153 39.3516 171.289 39.2915 171.402 39.2075C171.514 39.1234 171.609 39.0033 171.674 38.8532C171.745 38.7031 171.781 38.511 171.787 38.2708H171.099C170.809 38.2708 170.56 38.2288 170.353 38.1447C170.145 38.0607 169.979 37.9466 169.855 37.8145C169.73 37.6824 169.635 37.5263 169.582 37.3522C169.523 37.178 169.499 37.0039 169.499 36.8298C169.499 36.6016 169.535 36.3795 169.612 36.1753C169.689 35.9652 169.789 35.7851 169.926 35.629C170.062 35.4729 170.216 35.3528 170.406 35.2627C170.59 35.1726 170.791 35.1306 171.01 35.1306C171.23 35.1306 171.413 35.1666 171.579 35.2387C171.745 35.3107 171.888 35.4068 172.006 35.5329C172.125 35.659 172.214 35.8091 172.273 35.9892C172.332 36.1693 172.368 36.3615 172.368 36.5716V37.6764H173.18L173.168 37.6644ZM171.775 37.6644V36.7998C171.775 36.4515 171.704 36.1814 171.556 35.9892C171.408 35.7971 171.206 35.701 170.957 35.701C170.844 35.701 170.732 35.725 170.625 35.7671C170.518 35.8151 170.424 35.8811 170.341 35.9652C170.258 36.0553 170.192 36.1573 170.145 36.2774C170.098 36.3975 170.068 36.5356 170.068 36.6857C170.068 36.8598 170.098 37.0099 170.151 37.136C170.204 37.2621 170.281 37.3642 170.37 37.4422C170.465 37.5203 170.572 37.5743 170.69 37.6104C170.809 37.6464 170.933 37.6644 171.07 37.6644H171.781H171.775Z" fill="#00AFAA"/>
<path d="M173.062 38.2644C172.949 38.2644 172.89 38.2224 172.89 38.1324V37.8444C172.89 37.7244 172.949 37.6644 173.062 37.6644H174.069C174.182 37.6644 174.241 37.7124 174.241 37.8024V38.0844C174.241 38.2044 174.182 38.2644 174.069 38.2644H173.062Z" fill="#00AFAA"/>
<path d="M173.969 38.2648C173.856 38.2648 173.797 38.2227 173.797 38.1327V37.8445C173.797 37.7244 173.856 37.6644 173.969 37.6644H174.603C174.781 37.6644 174.899 37.6103 174.964 37.5082C175.024 37.4062 175.059 37.2681 175.059 37.094V32.885H175.652V36.7817C175.652 36.9078 175.664 37.0219 175.693 37.13C175.723 37.2381 175.765 37.3341 175.836 37.4122C175.901 37.4902 175.99 37.5563 176.097 37.5983C176.203 37.6403 176.34 37.6644 176.5 37.6644H176.66C176.772 37.6644 176.831 37.7064 176.831 37.7964V38.0846C176.831 38.2047 176.772 38.2648 176.66 38.2648H176.476C176.251 38.2648 176.061 38.2227 175.907 38.1327C175.747 38.0426 175.64 37.8925 175.581 37.6884C175.528 37.8145 175.468 37.9105 175.403 37.9886C175.338 38.0666 175.267 38.1207 175.19 38.1627C175.113 38.2047 175.03 38.2288 174.941 38.2468C174.852 38.2648 174.757 38.2708 174.656 38.2708H173.975L173.969 38.2648Z" fill="#00AFAA"/>
<path d="M176.547 38.2644C176.434 38.2644 176.375 38.2224 176.375 38.1324V37.8444C176.375 37.7244 176.434 37.6644 176.547 37.6644H177.554C177.667 37.6644 177.726 37.7124 177.726 37.8024V38.0844C177.726 38.2044 177.667 38.2644 177.554 38.2644H176.547Z" fill="#00AFAA"/>
<path d="M180.061 37.6644C179.919 37.5022 179.806 37.3281 179.735 37.136C179.664 36.9439 179.611 36.7637 179.587 36.5956C179.516 36.0132 179.243 35.719 178.781 35.719C178.68 35.719 178.562 35.731 178.425 35.761C178.289 35.791 178.147 35.8331 178.01 35.8931C177.987 35.785 177.957 35.683 177.933 35.5989C177.904 35.5149 177.88 35.4188 177.856 35.3227C177.987 35.2807 178.159 35.2387 178.354 35.1846C178.55 35.1306 178.751 35.1066 178.953 35.1066C179.154 35.1066 179.326 35.1366 179.474 35.2026C179.622 35.2687 179.747 35.3587 179.842 35.4788C179.943 35.5989 180.02 35.737 180.073 35.8991C180.132 36.0612 180.168 36.2414 180.186 36.4335C180.203 36.5416 180.215 36.6557 180.233 36.7637C180.251 36.8718 180.274 36.9799 180.316 37.088C180.351 37.196 180.405 37.2921 180.47 37.3822C180.535 37.4722 180.618 37.5563 180.731 37.6283V38.2648H177.447C177.335 38.2648 177.275 38.2227 177.275 38.1327V37.8445C177.275 37.7244 177.335 37.6644 177.447 37.6644H180.061Z" fill="#00AFAA"/>
</g>
<defs>
<clipPath id="clip0_1989_8115">
<rect width="211" height="40" fill="white"/>
</clipPath>
</defs>
</svg>
